<?xml version="1.0" encoding="iso-8859-1"?>
<!-- Generator: Adobe Illustrator 30.2.1, SVG Export Plug-In . SVG Version: 9.03 Build 0)  -->
<svg version="1.1" id="Layer_1" xmlns="http://www.w3.org/2000/svg" xmlns:xlink="http://www.w3.org/1999/xlink" x="0px" y="0px"
	 viewBox="0 0 728 251" style="enable-background:new 0 0 728 251;" xml:space="preserve">
<g>
	<path style="fill:#FFFFFF;" d="M111.653,12.232v3.886H73.37v123.981H51.412V16.118H13.129v-3.886H111.653z"/>
	<path style="fill:#FFFFFF;" d="M208.039,95.598h-69.764c0,7.127,0.453,13.603,1.361,19.433c0.905,5.83,3.206,10.979,6.899,15.449
		c3.692,4.469,9.23,6.704,16.615,6.704c7.384,0,14.313-1.749,20.793-5.247c6.476-3.498,11.723-8.356,15.741-14.574l3.498,2.332
		c-4.536,6.738-10.333,12.018-17.392,15.837c-7.063,3.823-14.608,5.733-22.639,5.733c-6.349,0-12.407-1.196-18.17-3.595
		c-5.766-2.395-10.98-5.86-15.643-10.396c-4.536-4.664-8.001-9.877-10.396-15.643c-2.399-5.763-3.595-11.821-3.595-18.17
		c0-6.346,1.166-12.437,3.498-18.267c2.332-5.83,5.636-11.009,9.911-15.546c4.533-4.534,9.649-7.998,15.352-10.396
		c5.699-2.396,11.723-3.595,18.072-3.595c6.346,0,12.34,1.199,17.975,3.595c5.635,2.398,10.591,5.863,14.866,10.396
		c4.145,4.536,7.351,9.716,9.619,15.546c2.265,5.83,3.401,11.921,3.401,18.267V95.598z M138.275,91.517h46.833
		c-0.131-7.254-0.616-13.667-1.458-19.238c-0.844-5.569-2.982-10.621-6.413-15.157c-3.434-4.534-8.647-6.996-15.643-7.384
		c-6.995,0.388-12.212,2.851-15.643,7.384c-3.434,4.536-5.572,9.619-6.413,15.254C138.695,78.011,138.275,84.393,138.275,91.517z"/>
	<path style="fill:#FFFFFF;" d="M234.468,12.232h21.959v127.867h-21.959V12.232z"/>
	<path style="fill:#FFFFFF;" d="M290.628,12.232h21.959v127.867h-21.959V12.232z"/>
	<path style="fill:#FFFFFF;" d="M344.845,99.679V46.822h21.959v58.687c0,10.624,1.846,18.333,5.538,23.125
		c3.692,4.795,7.87,7.19,12.534,7.19c4.145,0,8.386-1.779,12.729-5.344c4.339-3.562,7.221-8.065,8.647-13.506
		c0.647-2.72,1.069-5.568,1.263-8.55c0.194-2.979,0.292-6.671,0.292-11.076V46.822h21.958v93.277h-21.958V125.33
		c-2.463,4.406-6.285,8.162-11.465,11.271c-5.183,3.109-10.624,4.664-16.324,4.664c-5.183,0-9.911-0.747-14.186-2.234
		c-4.275-1.488-8.098-4.178-11.465-8.065c-3.24-3.625-5.635-7.967-7.19-13.02C345.622,112.893,344.845,106.805,344.845,99.679z"/>
	<path style="fill:#FFFFFF;" d="M518.185,48.765l-1.75,3.692c-4.274-1.813-8.617-2.72-13.02-2.72c-4.405,0-8.194,1.36-11.368,4.08
		c-3.176,2.721-5.344,5.572-6.51,8.55c-1.427,4.017-2.137,10.042-2.137,18.072v59.658h-21.959V46.822H483.4v6.996
		c5.441-5.441,12.112-8.161,20.015-8.161c2.849,0,5.345,0.261,7.482,0.777C513.036,46.952,515.464,47.729,518.185,48.765z"/>
	<path style="fill:#FFFFFF;" d="M620.595,46.822l-44.502,95.414c-5.829,13.083-13.15,22.736-21.958,28.955
		c-5.053,3.498-10.105,5.505-15.157,6.024l-2.527,0.194v-4.081c5.441-0.261,10.557-2.074,15.352-5.441
		c8.031-5.702,14.896-14.769,20.598-27.206c0.517-1.424,1.166-2.784,1.943-4.081l-42.557-89.779h24.291l30.315,63.934l29.732-63.934
		H620.595z"/>
	<path style="fill:#FFFFFF;" d="M669.954,141.265c-6.349,0-12.437-1.196-18.267-3.595c-5.829-2.395-11.012-5.86-15.546-10.396
		l2.915-2.915c4.014,4.148,8.711,7.321,14.089,9.522c5.374,2.205,10.979,3.304,16.809,3.304c5.052,0,9.358-0.744,12.922-2.234
		c3.562-1.488,6.249-3.304,8.065-5.441c1.812-2.138,2.72-4.242,2.72-6.316c0-2.72-0.908-5.053-2.72-6.996
		c-1.816-1.943-4.343-3.723-7.579-5.344c-3.24-1.618-8.618-4.047-16.129-7.287l-4.858-2.138c-6.091-2.46-11.013-4.791-14.769-6.996
		c-3.76-2.201-6.932-5.15-9.522-8.841c-2.593-3.692-3.887-8.386-3.887-14.089c0-5.699,1.91-10.557,5.733-14.575
		c3.819-4.014,8.841-6.996,15.06-8.939c5.18-1.554,10.3-2.332,15.352-2.332c6.346,0,12.404,1.232,18.169,3.692
		c5.764,2.462,10.849,5.897,15.255,10.3l-2.915,2.915c-4.148-4.145-8.842-7.318-14.089-9.522
		c-5.247-2.202-10.785-3.304-16.615-3.304c-6.218,0-11.401,1.232-15.546,3.692c-4.147,2.462-6.674,5.183-7.579,8.162
		c-0.261,1.038-0.388,1.816-0.388,2.332c0,3.24,1.877,6.024,5.635,8.356c3.756,2.332,9.456,5.119,17.101,8.356
		c1.166,0.389,2.915,1.102,5.247,2.138l3.692,1.555c7.254,3.109,12.856,5.733,16.809,7.87c3.95,2.138,7.288,4.794,10.008,7.967
		c2.72,3.176,4.08,6.966,4.08,11.368c0,6.48-2.593,12.437-7.772,17.878c-2.333,2.332-6.058,4.892-11.174,7.676
		C685.141,139.874,678.373,141.265,669.954,141.265z"/>
</g>
<g>
	<path style="fill:#FFFFFF;" d="M32.476,215.087h-1.413c-1.06-2.772-3.669-4.702-7.175-4.702c-4.484,0-8.017,3.289-8.017,8.642
		c0,5.326,3.533,8.615,8.017,8.615c4.348,0,7.691-3.044,7.936-7.99h-8.506v-1.033h9.756v0.815c-0.163,5.355-3.913,9.294-9.186,9.294
		c-5.327,0-9.267-3.995-9.267-9.701c0-5.734,3.941-9.73,9.267-9.73C28.019,209.298,31.117,211.527,32.476,215.087z"/>
	<path style="fill:#FFFFFF;" d="M48.544,228.757c-4.13,0-7.175-2.881-7.175-7.609c0-4.702,2.989-7.555,7.175-7.555
		c4.43,0,6.876,3.152,6.876,6.577c0,0.652,0,0.978-0.055,1.467H42.619c0.109,4.104,2.881,6.061,5.924,6.061
		c2.908,0,5.001-1.549,5.49-3.995h1.277C54.74,226.611,52.322,228.757,48.544,228.757z M42.619,220.632h11.577
		c0.19-4.104-2.691-6.006-5.68-6.006C45.5,214.625,42.756,216.554,42.619,220.632z M50.745,208.021v1.197l-5.327,3.369v-1.006
		L50.745,208.021z"/>
	<path style="fill:#FFFFFF;" d="M70.971,228.757c-4.13,0-7.256-2.881-7.256-7.609c0-4.702,3.18-7.555,7.311-7.555
		s7.256,2.853,7.256,7.555C78.282,225.876,75.102,228.757,70.971,228.757z M70.971,227.67c3.098,0,6.088-2.039,6.088-6.523
		c0-4.457-2.962-6.495-6.06-6.495s-6.033,2.038-6.033,6.495C64.965,225.631,67.873,227.67,70.971,227.67z"/>
	<path style="fill:#FFFFFF;" d="M87.364,208.429h1.223v20.111h-1.223V208.429z"/>
	<path style="fill:#FFFFFF;" d="M104.923,228.757c-4.13,0-7.256-2.881-7.256-7.609c0-4.702,3.18-7.555,7.311-7.555
		c4.131,0,7.256,2.853,7.256,7.555C112.234,225.876,109.054,228.757,104.923,228.757z M104.923,227.67
		c3.098,0,6.088-2.039,6.088-6.523c0-4.457-2.962-6.495-6.06-6.495s-6.033,2.038-6.033,6.495
		C98.917,225.631,101.825,227.67,104.923,227.67z"/>
	<path style="fill:#FFFFFF;" d="M127.677,213.593c3.234,0,5.435,1.793,6.251,4.021v-3.832h1.223v15.219
		c0,4.186-2.989,6.766-6.712,6.766c-3.75,0-6.251-1.957-6.985-4.919h1.223c0.706,2.283,2.691,3.859,5.762,3.859
		c3.071,0,5.49-2.146,5.49-5.707v-4.321c-0.816,2.229-3.017,4.076-6.251,4.076c-4.131,0-7.12-2.962-7.12-7.609
		C120.556,216.474,123.546,213.593,127.677,213.593z M127.84,214.653c-3.56,0-6.033,2.419-6.033,6.495s2.473,6.523,6.033,6.523
		c3.451,0,6.088-2.528,6.088-6.523C133.928,217.207,131.291,214.653,127.84,214.653z"/>
	<path style="fill:#FFFFFF;" d="M144.56,209.435c0-0.625,0.462-1.06,1.033-1.06c0.57,0,1.032,0.435,1.032,1.06
		c0,0.652-0.462,1.06-1.032,1.06C145.022,210.495,144.56,210.087,144.56,209.435z M144.967,213.783h1.223v14.757h-1.223V213.783z"/>
	<path style="fill:#FFFFFF;" d="M162.445,228.757c-4.13,0-7.174-2.881-7.174-7.609c0-4.702,2.989-7.555,7.174-7.555
		c4.43,0,6.876,3.152,6.876,6.577c0,0.652,0,0.978-0.055,1.467H156.52c0.109,4.104,2.881,6.061,5.924,6.061
		c2.908,0,5.001-1.549,5.49-3.995h1.277C168.641,226.611,166.223,228.757,162.445,228.757z M156.52,220.632h11.577
		c0.19-4.104-2.691-6.006-5.68-6.006C159.401,214.625,156.656,216.554,156.52,220.632z"/>
	<path style="fill:#FFFFFF;" d="M179.923,228.691c-1.107,0-1.963-0.806-1.963-1.963c0-1.158,0.856-1.963,1.963-1.963
		c1.057,0,1.913,0.805,1.913,1.963C181.837,227.885,180.981,228.691,179.923,228.691z"/>
	<path style="fill:#FFFFFF;" d="M212.888,215.087h-1.413c-1.06-2.772-3.669-4.702-7.174-4.702c-4.484,0-8.017,3.289-8.017,8.642
		c0,5.326,3.533,8.615,8.017,8.615c4.348,0,7.691-3.044,7.936-7.99h-8.506v-1.033h9.756v0.815c-0.163,5.355-3.913,9.294-9.186,9.294
		c-5.327,0-9.267-3.995-9.267-9.701c0-5.734,3.941-9.73,9.267-9.73C208.431,209.298,211.529,211.527,212.888,215.087z"/>
	<path style="fill:#FFFFFF;" d="M228.956,228.757c-4.13,0-7.174-2.881-7.174-7.609c0-4.702,2.989-7.555,7.174-7.555
		c4.43,0,6.876,3.152,6.876,6.577c0,0.652,0,0.978-0.055,1.467h-12.746c0.109,4.104,2.881,6.061,5.924,6.061
		c2.908,0,5.001-1.549,5.49-3.995h1.277C235.153,226.611,232.734,228.757,228.956,228.757z M223.032,220.632h11.577
		c0.19-4.104-2.691-6.006-5.68-6.006C225.913,214.625,223.168,216.554,223.032,220.632z M231.158,208.021v1.197l-5.327,3.369v-1.006
		L231.158,208.021z"/>
	<path style="fill:#FFFFFF;" d="M251.383,228.757c-4.13,0-7.256-2.881-7.256-7.609c0-4.702,3.18-7.555,7.311-7.555
		c4.131,0,7.256,2.853,7.256,7.555C258.694,225.876,255.514,228.757,251.383,228.757z M251.383,227.67
		c3.098,0,6.088-2.039,6.088-6.523c0-4.457-2.962-6.495-6.06-6.495c-3.099,0-6.033,2.038-6.033,6.495
		C245.377,225.631,248.285,227.67,251.383,227.67z"/>
	<path style="fill:#FFFFFF;" d="M275.25,213.593c4.131,0,7.12,2.881,7.12,7.555c0,4.647-2.989,7.609-7.12,7.609
		c-3.234,0-5.435-1.847-6.25-4.076v10.816h-1.223v-21.714H269v3.887C269.788,215.414,272.016,213.593,275.25,213.593z
		 M275.06,214.653c-3.424,0-6.06,2.554-6.06,6.495c0,3.995,2.636,6.523,6.06,6.523c3.588,0,6.061-2.446,6.061-6.523
		S278.648,214.653,275.06,214.653z"/>
	<path style="fill:#FFFFFF;" d="M291.427,208.429h1.223v8.479c0.87-2.283,2.989-3.425,5.462-3.425c3.261,0,5.925,1.984,5.925,6.414
		v8.642h-1.196v-8.561c0-3.587-1.984-5.435-4.946-5.435c-3.071,0-5.245,1.93-5.245,6.033v7.963h-1.223V208.429z"/>
	<path style="fill:#FFFFFF;" d="M323.99,213.783h1.25l-8.588,21.687h-1.25l2.745-6.93l-6.196-14.757h1.332l5.544,13.398
		L323.99,213.783z"/>
	<path style="fill:#FFFFFF;" d="M338.236,228.757c-3.234,0-5.517-1.467-5.789-4.186h1.25c0.19,1.876,1.739,3.126,4.539,3.126
		c2.31,0,3.669-1.359,3.669-2.962c0-4.076-9.05-1.712-9.05-7.31c0-2.066,2.011-3.832,4.892-3.832c3.071,0,5.109,1.603,5.272,4.348
		h-1.223c-0.109-1.847-1.467-3.315-4.076-3.315c-2.147,0-3.642,1.277-3.642,2.799c0,4.566,8.968,2.147,9.022,7.31
		C343.101,227.045,341.063,228.757,338.236,228.757z"/>
	<path style="fill:#FFFFFF;" d="M351.775,209.435c0-0.625,0.462-1.06,1.033-1.06c0.57,0,1.032,0.435,1.032,1.06
		c0,0.652-0.462,1.06-1.032,1.06C352.237,210.495,351.775,210.087,351.775,209.435z M352.183,213.783h1.223v14.757h-1.223V213.783z"
		/>
	<path style="fill:#FFFFFF;" d="M369.606,213.593c3.234,0,5.462,1.821,6.25,4.049v-3.859h1.223v21.714h-1.223V224.68
		c-0.789,2.229-3.016,4.076-6.278,4.076c-4.104,0-7.093-2.962-7.093-7.609C362.486,216.474,365.475,213.593,369.606,213.593z
		 M369.77,214.653c-3.56,0-6.033,2.419-6.033,6.495s2.473,6.523,6.033,6.523c3.451,0,6.087-2.528,6.087-6.523
		C375.857,217.207,373.221,214.653,369.77,214.653z"/>
	<path style="fill:#FFFFFF;" d="M399.371,228.54h-1.223v-3.207c-0.843,2.311-2.99,3.452-5.409,3.452
		c-3.288,0-5.979-1.957-5.979-6.414v-8.588h1.197v8.507c0,3.614,1.983,5.435,4.946,5.435c3.072,0,5.245-1.93,5.245-6.033v-7.909
		h1.223V228.54z"/>
	<path style="fill:#FFFFFF;" d="M415.601,228.757c-4.131,0-7.175-2.881-7.175-7.609c0-4.702,2.989-7.555,7.175-7.555
		c4.429,0,6.876,3.152,6.876,6.577c0,0.652,0,0.978-0.054,1.467h-12.746c0.109,4.104,2.881,6.061,5.925,6.061
		c2.907,0,5.001-1.549,5.489-3.995h1.277C421.797,226.611,419.379,228.757,415.601,228.757z M409.676,220.632h11.577
		c0.19-4.104-2.69-6.006-5.68-6.006C412.557,214.625,409.812,216.554,409.676,220.632z"/>
	<path style="fill:#FFFFFF;" d="M433.08,228.691c-1.107,0-1.963-0.806-1.963-1.963c0-1.158,0.856-1.963,1.963-1.963
		c1.057,0,1.913,0.805,1.913,1.963C434.993,227.885,434.137,228.691,433.08,228.691z"/>
	<path style="fill:#FFFFFF;" d="M458.598,210.495h-8.425v7.962h7.61v1.033h-7.61v8.017h8.425v1.032h-9.647v-19.078h9.647V210.495z"
		/>
	<path style="fill:#FFFFFF;" d="M479.068,219.979c0-3.587-1.984-5.435-4.947-5.435c-3.071,0-5.245,1.93-5.245,6.033v7.963h-1.222
		v-14.757h1.222v3.126c0.87-2.283,2.99-3.425,5.435-3.425c3.289,0,5.952,1.984,5.952,6.414v8.642h-1.196V219.979z"/>
	<path style="fill:#FFFFFF;" d="M489.508,213.783l5.435,13.426l5.436-13.426h1.304l-6.115,14.757h-1.277l-6.115-14.757H489.508z"/>
	<path style="fill:#FFFFFF;" d="M509.326,209.435c0-0.625,0.462-1.06,1.032-1.06c0.571,0,1.033,0.435,1.033,1.06
		c0,0.652-0.462,1.06-1.033,1.06C509.788,210.495,509.326,210.087,509.326,209.435z M509.734,213.783h1.222v14.757h-1.222V213.783z"
		/>
	<path style="fill:#FFFFFF;" d="M522.02,228.54h-1.222v-14.757h1.222v3.044c0.734-2.147,2.555-3.343,5.463-3.343v1.277h-0.407
		c-2.528,0-5.056,1.251-5.056,5.272V228.54z"/>
	<path style="fill:#FFFFFF;" d="M542.162,228.757c-4.131,0-7.256-2.881-7.256-7.609c0-4.702,3.18-7.555,7.31-7.555
		s7.256,2.853,7.256,7.555C549.472,225.876,546.293,228.757,542.162,228.757z M542.162,227.67c3.098,0,6.087-2.039,6.087-6.523
		c0-4.457-2.962-6.495-6.061-6.495s-6.033,2.038-6.033,6.495C536.156,225.631,539.064,227.67,542.162,227.67z"/>
	<path style="fill:#FFFFFF;" d="M569.971,219.979c0-3.587-1.984-5.435-4.947-5.435c-3.071,0-5.245,1.93-5.245,6.033v7.963h-1.222
		v-14.757h1.222v3.126c0.87-2.283,2.99-3.425,5.435-3.425c3.289,0,5.952,1.984,5.952,6.414v8.642h-1.196V219.979z"/>
	<path style="fill:#FFFFFF;" d="M592.261,219.979c0-3.587-1.984-5.435-4.947-5.435c-3.071,0-5.245,1.93-5.245,6.033v7.963h-1.222
		v-14.757h1.222v3.126c0.87-2.283,2.99-3.425,5.435-3.425c3.289,0,5.952,1.984,5.952,6.414v8.642h-1.196V219.979z"/>
	<path style="fill:#FFFFFF;" d="M609.552,228.757c-4.131,0-7.174-2.881-7.174-7.609c0-4.702,2.989-7.555,7.174-7.555
		c4.429,0,6.876,3.152,6.876,6.577c0,0.652,0,0.978-0.054,1.467h-12.746c0.109,4.104,2.881,6.061,5.925,6.061
		c2.907,0,5.001-1.549,5.489-3.995h1.277C615.748,226.611,613.329,228.757,609.552,228.757z M603.627,220.632h11.577
		c0.19-4.104-2.69-6.006-5.68-6.006C606.508,214.625,603.763,216.554,603.627,220.632z"/>
	<path style="fill:#FFFFFF;" d="M647.468,219.979c0-3.587-1.875-5.435-4.729-5.435c-2.907,0-5.055,2.011-5.055,6.142v7.854h-1.196
		v-8.561c0-3.587-1.875-5.435-4.728-5.435c-2.936,0-5.056,2.011-5.056,6.142v7.854h-1.222v-14.757h1.222v3.207
		c0.87-2.392,2.908-3.506,5.245-3.506c2.554,0,4.728,1.305,5.463,4.13c0.733-2.826,2.962-4.13,5.517-4.13
		c3.152,0,5.734,1.984,5.734,6.414v8.642h-1.196V219.979z"/>
	<path style="fill:#FFFFFF;" d="M664.789,228.757c-4.131,0-7.174-2.881-7.174-7.609c0-4.702,2.989-7.555,7.174-7.555
		c4.429,0,6.876,3.152,6.876,6.577c0,0.652,0,0.978-0.054,1.467h-12.746c0.109,4.104,2.881,6.061,5.925,6.061
		c2.907,0,5.001-1.549,5.489-3.995h1.277C670.985,226.611,668.566,228.757,664.789,228.757z M658.864,220.632h11.577
		c0.19-4.104-2.69-6.006-5.68-6.006C661.745,214.625,659,216.554,658.864,220.632z"/>
	<path style="fill:#FFFFFF;" d="M692.135,219.979c0-3.587-1.984-5.435-4.947-5.435c-3.071,0-5.245,1.93-5.245,6.033v7.963h-1.222
		v-14.757h1.222v3.126c0.87-2.283,2.99-3.425,5.435-3.425c3.289,0,5.952,1.984,5.952,6.414v8.642h-1.196V219.979z"/>
	<path style="fill:#FFFFFF;" d="M703.609,214.842h-2.229v-1.06h2.229v-3.75h1.222v3.75h4.376v1.06h-4.376v9.756
		c0,2.229,0.734,2.853,2.719,2.853h1.658v1.087h-1.848c-2.528,0-3.75-1.032-3.75-3.941V214.842z"/>
</g>
<rect x="14.531" y="191.496" style="fill:#FFFFFF;" width="694.677" height="3.879"/>
</svg>
